<svg width="1440" height="800" viewBox="0 0 1440 800" fill="none" xmlns="http://www.w3.org/2000/svg">
<g filter="url(#filter0_f_1_932)">
<path fill-rule="evenodd" clip-rule="evenodd" d="M523 398.008C509 401.208 480.5 428.675 468 442.008V664.508H715.5C714 609.342 708.9 495.908 700.5 483.508C697.494 479.071 693.013 473.773 688.171 468.049C676.1 453.777 661.786 436.855 662.5 424.008C662.517 423.706 662.534 423.397 662.552 423.081C663.58 404.623 665.824 364.374 655.5 356.508C647.1 350.108 637.333 327.508 633.5 317.008C624.616 316.541 603.928 336.185 593.921 345.687C593.227 346.346 592.584 346.957 592 347.508C583 356.008 540.5 394.008 523 398.008ZM1297.06 356.508C1299.04 362.508 1305.1 375.708 1313.5 380.508C1324 386.508 1320 399.008 1313.5 411.508C1309.3 419.582 1315.32 433.078 1320.52 444.722C1323.37 451.107 1325.97 456.936 1326.5 461.008C1327.7 470.208 1314 600.508 1307 664.508H1440V454.008C1430.5 449.175 1409.1 438.008 1399.5 432.008C1392.18 427.431 1380.75 411.491 1371.37 398.4C1365.38 390.043 1360.23 382.846 1357.5 380.508C1352.99 376.644 1347.65 376.513 1342.02 376.375C1338.91 376.299 1335.7 376.22 1332.5 375.508C1327.22 374.335 1321.25 368.515 1316.11 363.501C1312.49 359.968 1309.27 356.835 1307 356.008C1304.25 355.008 1300.75 355.133 1297.06 356.508Z" fill="#F1F1F1"/>
<path d="M726.5 356.508C719 356.508 697 357.008 684 347.508L683.772 347.341C670.675 337.77 642.945 317.505 633.5 317.008C637.333 327.508 647.1 350.108 655.5 356.508C665.824 364.374 663.58 404.623 662.552 423.081L662.5 424.008C661.786 436.855 676.1 453.777 688.171 468.049C693.013 473.773 697.494 479.071 700.5 483.508C708.9 495.908 714 609.342 715.5 664.508H1307C1314 600.508 1327.7 470.208 1326.5 461.008C1325.97 456.936 1323.37 451.107 1320.52 444.722C1315.32 433.078 1309.3 419.582 1313.5 411.508C1320 399.008 1324 386.508 1313.5 380.508C1305.1 375.708 1299.04 362.508 1297.06 356.508C1293.38 357.883 1289.5 360.508 1286 364.508C1279 372.508 1256 380.508 1245 380.508C1234 380.508 1209.5 380.008 1200 386.508C1190.5 393.008 1182 395.008 1169.5 400.508C1157 406.008 1156.5 411.508 1127.5 432.008C1098.5 452.508 965.5 439.008 956 411.508C946.5 384.008 937.5 386.008 931 386.508C924.5 387.008 916 411.508 907.5 417.008C899 422.508 854.5 419.508 849.5 411.508C844.5 403.508 813 394.008 802.5 395.008C792 396.008 769 390.508 760.5 377.008C752 363.508 734 356.508 726.5 356.508Z" fill="#EAEAEA"/>
</g>
<g filter="url(#filter1_f_1_932)">
<path fill-rule="evenodd" clip-rule="evenodd" d="M100 488.508C79.6 497.708 24.5 539.342 -0.5 559.008V631.508H402.5C401.167 610.008 395.1 563.008 381.5 547.008C366.854 529.778 367.795 515.887 368.336 507.895C368.423 506.61 368.5 505.478 368.5 504.508C368.5 501.07 373.446 497.994 378.953 494.568C384.658 491.02 390.965 487.097 393 482.008C396.651 472.88 384.887 461.252 374.441 450.927C373.444 449.941 372.459 448.967 371.5 448.008C365.043 441.551 359.102 432.681 353.375 424.131C349.346 418.115 345.423 412.257 341.5 407.508C333.9 398.308 334 384.269 335 378.399C327.43 381.258 318.747 387.911 313 392.508C305.5 398.508 281 400.008 272.5 400.008C266.563 400.008 259.895 405.618 252.836 411.557C249.787 414.121 246.666 416.747 243.5 419.008C233 426.508 207 428.508 198.5 428.508C190 428.508 169 442.508 158 452.508C147 462.508 125.5 477.008 100 488.508ZM1072 394.429C1066 395.622 1054.2 399.808 1055 407.008C1056 416.008 1065 417.508 1072 417.508C1079 417.508 1090.5 427.508 1091 438.008C1091.05 439.015 1091.09 440.035 1091.13 441.062C1091.14 441.073 1091.14 441.084 1091.14 441.095C1091.55 450.777 1091.98 461.09 1096.5 466.508C1101.5 472.508 1127 482.508 1135.5 485.008C1144 487.508 1145 498.508 1142.5 520.008C1140.5 537.208 1130.67 601.508 1126 631.508H1439.5V380.508C1429 400.008 1336.5 442.508 1325.5 442.508C1324.65 442.508 1323.32 442.502 1321.59 442.495C1300.85 442.402 1222.27 442.049 1213.5 448.508C1204 455.508 1183 460.008 1172.5 460.008C1162 460.008 1140.5 444.508 1135.5 438.008C1130.5 431.508 1111 411.508 1107.5 411.508C1106.93 411.508 1106.1 411.575 1105.1 411.656C1099.96 412.072 1090.18 412.863 1086 407.008C1082.75 402.46 1076.76 397.49 1072 394.429Z" fill="#ECECEC"/>
<path d="M368.5 400.008C362.5 387.508 350 377.008 341.5 377.008C339.514 377.008 337.309 377.527 335 378.399C334 384.269 333.9 398.308 341.5 407.508C345.423 412.257 349.346 418.115 353.375 424.131C359.102 432.681 365.043 441.551 371.5 448.008C372.459 448.967 373.444 449.941 374.441 450.927C384.887 461.252 396.651 472.88 393 482.008C390.965 487.097 384.658 491.02 378.953 494.568C373.446 497.994 368.5 501.07 368.5 504.508C368.5 505.478 368.423 506.61 368.336 507.895C367.795 515.887 366.854 529.778 381.5 547.008C395.1 563.008 401.167 610.008 402.5 631.508H1126C1130.67 601.508 1140.5 537.208 1142.5 520.008C1145 498.508 1144 487.508 1135.5 485.008C1127 482.508 1101.5 472.508 1096.5 466.508C1091.98 461.09 1091.55 450.777 1091.14 441.095L1091.13 441.062C1091.09 440.035 1091.05 439.015 1091 438.008C1090.5 427.508 1079 417.508 1072 417.508C1065 417.508 1056 416.008 1055 407.008C1054.2 399.808 1066 395.622 1072 394.429C1069.43 392.779 1067.23 391.683 1066 391.508C1062.5 391.008 1052 392.008 1045 398.508C1038 405.008 1026.5 416.008 1022 416.008C1017.5 416.008 1011 414.008 1002 417.508C993 421.008 975 442.008 967.5 448.508C960 455.008 922 456.008 917 454.008C912 452.008 904 450.508 896.5 451.008C889 451.508 885 462.008 871.5 463.008C858 464.008 839.5 469.008 828.5 481.008C817.5 493.008 800.5 504.508 790.5 504.508C780.5 504.508 772 505.508 757 511.508C742 517.508 667 507.508 664 501.008C661 494.508 621.5 474.508 614 471.508C606.5 468.508 589 473.008 576 474.508C563 476.008 552.5 473.508 548 469.008C543.5 464.508 534.5 466.008 530 465.508C525.5 465.008 518 449.008 508 444.508C498 440.008 484 440.508 475 439.508C466 438.508 454.5 424.008 442.5 419.008C430.5 414.008 415.5 422.508 408 424.008C400.5 425.508 374.5 412.508 368.5 400.008Z" fill="#E5E5E5"/>
</g>
<g filter="url(#filter2_f_1_932)">
<path fill-rule="evenodd" clip-rule="evenodd" d="M87.5 561.008C82.3 564.608 27 627.175 0 658.008V749.508H764C761.775 737.678 758.017 706.524 754.959 681.168C752.976 664.73 751.287 650.728 750.5 646.008C748 631.008 720.5 594.008 716.5 590.508C712.5 587.008 704 564.008 711 556.008C718 548.008 718.5 540.008 716.5 535.008C715.547 532.627 711.418 527.068 706.976 521.089C702.093 514.516 696.833 507.436 695 503.508C692.2 497.508 697.833 487.687 701 483.527C696.509 484.096 692.039 485.401 688 487.508C676.5 493.508 666.5 496.508 653.5 496.508C640.5 496.508 603.5 520.508 595 527.008C586.5 533.508 558 542.508 550.5 535.008C543 527.508 527 524.508 522 524.508C517 524.508 507.5 533.008 503.5 538.008C499.5 543.008 486.5 546.508 476.5 540.008C466.5 533.508 446 529.508 438 529.508C430.638 529.508 413.96 538.401 404.723 543.326C403.922 543.753 403.178 544.15 402.5 544.508C394 549.008 371 556.508 358 559.508C345 562.508 324.5 553.508 315 544.508C305.5 535.508 286 529.508 279 529.508C272 529.508 264 534.508 256 540.008C248 545.508 237.5 550.508 229 551.008C220.5 551.508 203 543.508 198.5 540.008C194 536.508 175.5 534.508 170.5 534.508C165.5 534.508 152 536.008 145.5 540.008C139 544.008 123 549.008 114.5 547.508C107.44 546.262 97.9651 553.295 91.2329 558.292C89.86 559.312 88.6011 560.246 87.5 561.008ZM1327 469.008C1325.5 477.675 1323.4 497.508 1327 507.508C1331.5 520.008 1333 537.508 1330 560.008C1327.75 576.867 1332.24 588.954 1335.9 598.793L1335.9 598.796C1337.12 602.087 1338.25 605.126 1339 608.008C1340.03 611.967 1342.78 619.48 1345.95 628.12C1351.97 644.583 1359.5 665.139 1359.5 673.008C1359.5 682.608 1358.17 738.008 1357.5 749.508H1441V535.008C1431.67 527.008 1409.2 509.208 1394 502.008C1387.04 498.713 1377.47 493.674 1367.67 488.512C1350.69 479.578 1333.02 470.276 1327 469.008Z" fill="#E5E5E5"/>
<path d="M757 511.008C754.5 503.508 732.5 493.008 723.5 487.508C717.661 483.94 709.296 482.476 701 483.527C697.833 487.687 692.2 497.508 695 503.508C696.833 507.436 702.093 514.516 706.976 521.089C711.418 527.068 715.547 532.627 716.5 535.008C718.5 540.008 718 548.008 711 556.008C704 564.008 712.5 587.008 716.5 590.508C720.5 594.008 748 631.008 750.5 646.008C751.287 650.728 752.976 664.73 754.959 681.168C758.017 706.524 761.775 737.678 764 749.508H1357.5C1358.17 738.008 1359.5 682.608 1359.5 673.008C1359.5 665.139 1351.97 644.583 1345.95 628.12C1342.78 619.48 1340.03 611.967 1339 608.008C1338.25 605.126 1337.12 602.087 1335.9 598.796L1335.9 598.793C1332.24 588.954 1327.75 576.867 1330 560.008C1333 537.508 1331.5 520.008 1327 507.508C1323.4 497.508 1325.5 477.675 1327 469.008C1317.5 467.008 1298.5 473.008 1285.5 487.508C1272.5 502.008 1254 509.008 1247 505.508C1240 502.008 1219 498.508 1208 502.008C1197 505.508 1188.5 508.008 1176.5 507.508C1164.5 507.008 1148 515.508 1142.5 520.008C1137 524.508 1125 535.008 1118 535.008C1111 535.008 1096 537.008 1091 546.008C1086 555.008 1072.5 581.008 1061 577.508C1049.5 574.008 1030 572.008 1021.5 572.508C1013 573.008 989.5 572.008 986 569.008C982.5 566.008 975.5 560.008 969 564.008C962.5 568.008 952.5 567.508 948.5 567.508C944.5 567.508 939 562.508 931 560.008C923 557.508 840.5 559.508 835 560.008C829.5 560.508 820 549.008 811.5 549.008C803 549.008 798 541.008 797 535.008C796 529.008 785 522.008 777.5 521.508C770 521.008 759.5 518.508 757 511.008Z" fill="#DEDEDE"/>
</g>
<g filter="url(#filter3_f_1_932)">
<path fill-rule="evenodd" clip-rule="evenodd" d="M234 742.008C215.6 749.208 183.333 783.342 169.5 799.508H490C481.5 784.008 474.5 746.508 474 738.508C473.702 733.748 479.424 724.562 484.949 715.691C488.71 709.653 492.38 703.761 494 699.508C496.883 691.94 494.831 680.735 492.524 668.14C491.63 663.261 490.698 658.174 490 653.008C487.5 634.508 497 630.008 502 628.508C507 627.008 514 623.508 516 615.508C517.6 609.108 515.333 597.379 514 592.314C506.9 592.826 498.752 593.841 490 595.008C467.5 598.008 444 608.008 434 615.508C429.523 618.866 426.549 624.73 423.329 631.08C419.356 638.912 415.008 647.485 407 653.008C397.486 659.57 392.277 659.458 385.442 659.312C381.859 659.235 377.83 659.149 372.5 660.008C362.647 661.597 353.804 674.097 345.33 686.076C340.473 692.942 335.736 699.636 331 704.008C321.857 712.448 288.97 723.361 262.26 732.225C250.992 735.964 240.824 739.338 234 742.008ZM1176.5 596.508C1179.83 606.842 1184.2 629.108 1175 635.508C1163.5 643.508 1153 646.508 1135.5 645.008C1118 643.508 1106.5 673.008 1107.5 679.008C1108.3 683.808 1113.83 761.342 1116.5 799.508H1341.5V731.008C1335.17 724.175 1321.6 710.408 1318 710.008C1313.5 709.508 1298.5 706.008 1295.5 699.508C1294.68 697.739 1293.79 695.378 1292.81 692.767C1290.17 685.783 1286.87 677.011 1282.5 673.008C1278.82 669.632 1269.86 666.821 1262.33 664.459C1257.6 662.974 1253.43 661.667 1251.5 660.508C1249.99 659.605 1247.36 657.705 1244.28 655.491C1237.14 650.348 1227.65 643.508 1224.5 643.508C1223.67 643.508 1222.71 643.543 1221.69 643.58C1217.19 643.742 1211.35 643.952 1208.5 641.508C1206.45 639.755 1197.4 626.555 1189.34 614.791C1183.61 606.429 1178.37 598.793 1176.5 596.508Z" fill="#DDDDDD"/>
<path d="M552 632.008C543.5 626.008 545 600.008 538 595.008C533.723 591.953 525.153 591.511 514 592.314C515.333 597.379 517.6 609.108 516 615.508C514 623.508 507 627.008 502 628.508C497 630.008 487.5 634.508 490 653.008C490.698 658.174 491.63 663.261 492.524 668.14C494.831 680.735 496.883 691.94 494 699.508C492.38 703.761 488.71 709.653 484.949 715.691C479.424 724.562 473.702 733.748 474 738.508C474.5 746.508 481.5 784.008 490 799.508H1116.5C1113.83 761.342 1108.3 683.808 1107.5 679.008C1106.5 673.008 1118 643.508 1135.5 645.008C1153 646.508 1163.5 643.508 1175 635.508C1184.2 629.108 1179.83 606.842 1176.5 596.508C1172 591.008 1151 579.508 1139.5 586.008C1128 592.508 1105 599.508 1096.5 599.508C1088 599.508 1078.5 595.008 1067 595.008C1055.5 595.008 1049 595.008 1032 602.008C1015 609.008 1005 626.008 976 627.508C947 629.008 927 628.508 918 632.008C909 635.508 882 679.508 873.5 683.508C865 687.508 856.5 679.508 843 687.508C829.5 695.508 802 717.508 789 717.508C776 717.508 754.5 680.008 732 679.508C709.5 679.008 686 653.008 674.5 653.008C663 653.008 640 660.008 624.5 660.008C609 660.008 560.5 638.008 552 632.008Z" fill="#D3D3D3"/>
</g>
<g filter="url(#filter4_f_1_932)">
<path d="M4.97549 509.443C-6.02237 514.69 -1.01536 526.365 2.86287 531.546L6.17372 738.08C-4.29574 746.508 2.44164 757.246 7.11901 761.561L45.0883 760.032C51.5449 751.366 47.1483 740.767 44.143 736.552L38.3344 530.118C47.5727 520.939 41.5937 511.639 37.4495 508.136L4.97549 509.443Z" fill="#D9D9D9"/>
<path d="M3.84469 767.197C-2.05392 769.837 -1.27543 776.744 -0.148856 779.868L49.3093 777.877C49.7869 769.851 44.8433 766.381 42.3118 765.649L3.84469 767.197Z" fill="#D9D9D9"/>
<path d="M5.8332 269.715C-3.26539 262.475 1.5326 254.042 5.06892 250.73L35.0446 249.523C43.3761 257.595 38.3595 265.57 34.8097 268.548L37.8419 480.598C47.0532 490.635 41.2574 499.142 37.2081 502.141L3.7351 503.488C-5.17298 491.037 0.0726359 482.952 3.80895 480.467L5.8332 269.715Z" fill="#D9D9D9"/>
<path d="M33.8443 244.568C42.4441 239.417 38.5431 228.699 35.5177 223.984L42.5482 -23.9999L14.0712 -22.8535L2.0448 225.331C-3.61245 233.966 1.56961 242.531 4.8678 245.734L33.8443 244.568Z" fill="#D9D9D9"/>
</g>
<g filter="url(#filter5_f_1_932)">
<path d="M77.8074 554.408C88.6217 560.023 83.223 571.522 79.1718 576.57L68.8825 782.874C79.0612 791.651 71.9647 802.155 67.1442 806.309L29.2483 803.498C23.0883 794.618 27.8405 784.175 30.9866 780.063L43.7688 573.944C34.8461 564.458 41.1359 555.365 45.3962 552.004L77.8074 554.408Z" fill="#D9D9D9"/>
<path d="M70.2261 812.053C76.0322 814.89 75.0207 821.768 73.7892 824.852L24.4265 821.19C24.2205 813.153 29.2786 809.851 31.8333 809.205L70.2261 812.053Z" fill="#D9D9D9"/>
<path d="M85.0524 314.787C94.3905 307.859 89.8803 299.269 86.4579 295.839L56.5401 293.62C47.9407 301.406 52.6849 309.545 56.1319 312.642L45.9347 524.468C36.3895 534.189 41.8944 542.887 45.84 546.02L79.2484 548.498C88.5722 536.355 83.6028 528.098 79.9526 525.487L85.0524 314.787Z" fill="#D9D9D9"/>
<path d="M57.9072 288.708C49.4864 283.27 53.7474 272.69 56.9305 268.079L58.2853 19.9998L86.7072 22.108L90.3387 270.557C95.7009 279.378 90.2323 287.763 86.8278 290.853L57.9072 288.708Z" fill="#D9D9D9"/>
</g>
<g filter="url(#filter6_f_1_932)">
<path d="M1425.81 265.489C1436.62 259.874 1431.22 248.375 1427.17 243.327L1416.88 37.0233C1427.06 28.2463 1419.96 17.7424 1415.14 13.5876L1377.25 16.3986C1371.09 25.2786 1375.84 35.7224 1378.99 39.8342L1391.77 245.953C1382.85 255.439 1389.14 264.532 1393.4 267.893L1425.81 265.489Z" fill="#D9D9D9"/>
<path d="M1418.23 7.84393C1424.03 5.00664 1423.02 -1.87067 1421.79 -4.9547L1372.43 -1.2932C1372.22 6.74406 1377.28 10.0456 1379.83 10.6917L1418.23 7.84393Z" fill="#D9D9D9"/>
<path d="M1433.05 505.11C1442.39 512.038 1437.88 520.628 1434.46 524.057L1404.54 526.277C1395.94 518.491 1400.68 510.352 1404.13 507.255L1393.93 295.429C1384.39 285.708 1389.89 277.01 1393.84 273.877L1427.25 271.399C1436.57 283.542 1431.6 291.799 1427.95 294.41L1433.05 505.11Z" fill="#D9D9D9"/>
<path d="M1405.91 531.189C1397.49 536.627 1401.75 547.207 1404.93 551.818L1406.29 799.897L1434.71 797.789L1438.34 549.34C1443.7 540.519 1438.23 532.134 1434.83 529.044L1405.91 531.189Z" fill="#D9D9D9"/>
</g>
<g filter="url(#filter7_f_1_932)">
<path d="M173 224H160.5L204.5 -23L173 224Z" fill="#D9D9D9"/>
<path d="M171.5 232.5H160.5L127.5 427.5H143.5L171.5 232.5Z" fill="#D9D9D9"/>
<path d="M140 436H127.5L72.5 774H89.5L140 436Z" fill="#D9D9D9"/>
</g>
<g filter="url(#filter8_f_1_932)">
<path d="M1346.65 125.6L1361.74 126.955L1335.4 -176L1346.65 125.6Z" fill="#D9D9D9"/>
<path d="M1347.54 136.024L1360.82 137.217L1379.52 376.204L1360.2 374.47L1347.54 136.024Z" fill="#D9D9D9"/>
<path d="M1363.51 385.111L1378.6 386.465L1408.36 800.471L1387.84 798.629L1363.51 385.111Z" fill="#D9D9D9"/>
</g>
<g filter="url(#filter9_f_1_932)">
<path d="M106 432C101.6 433.6 92.8333 445.667 89 451.5C93.6667 448.5 104.1 441.5 108.5 437.5C112.9 433.5 122.333 433.833 126.5 434.5C123.5 429.5 111.5 430 106 432Z" fill="#C6C6C6"/>
<path d="M100.5 468.5C104.167 459.167 114.5 440.2 126.5 439C119 446.333 103.3 462.5 100.5 468.5Z" fill="#C6C6C6"/>
<path d="M167 463C163.4 446.6 147.5 439.167 140 437.5V442C148 442.4 161.333 456.167 167 463Z" fill="#C6C6C6"/>
<path d="M138.5 445.5C142.167 453.167 148.4 475.2 144 502C141.667 485.083 137.3 450.1 138.5 445.5Z" fill="#C6C6C6"/>
</g>
<g filter="url(#filter10_f_1_932)">
<path d="M1404.98 383.967C1410.12 386.376 1419.39 401.893 1423.39 409.351C1418.08 405.223 1406.24 395.642 1401.36 390.336C1396.49 385.03 1385.06 384.41 1379.96 384.763C1384.12 379.052 1398.56 380.957 1404.98 383.967Z" fill="#C6C6C6"/>
<path d="M1407.66 428.627C1404.25 416.962 1393.83 392.945 1379.47 390.196C1387.73 399.862 1404.93 421.081 1407.66 428.627Z" fill="#C6C6C6"/>
<path d="M1327.98 414.779C1334.1 395.371 1354.1 388.121 1363.34 386.922L1362.85 392.354C1353.15 391.97 1335.56 407.144 1327.98 414.779Z" fill="#C6C6C6"/>
<path d="M1364.28 396.742C1359.02 405.6 1349.11 431.524 1351.52 464.354C1356.17 444.185 1365.23 402.425 1364.28 396.742Z" fill="#C6C6C6"/>
</g>
<g filter="url(#filter11_f_1_932)">
<path d="M4.87893 440.664C7.60969 444.467 21.5982 449.642 28.2511 451.754C24.1004 448.073 14.5387 439.922 9.49746 436.769C4.4562 433.615 2.22484 424.443 1.73932 420.252C-2.26254 424.493 1.46547 435.91 4.87893 440.664Z" fill="#C6C6C6"/>
<path d="M41.5057 436.083C31.5285 435.078 10.4734 430.262 6.07154 419.034C15.1605 424.27 34.972 435.011 41.5057 436.083Z" fill="#C6C6C6"/>
<path d="M18.219 373.551C3.40463 381.454 0.550344 398.772 0.974995 406.444L5.30717 405.226C3.52781 397.416 13.1737 380.856 18.219 373.551Z" fill="#C6C6C6"/>
<path d="M9.08246 405.723C15.4712 400.119 34.9963 388.157 61.9872 385.142C46.3328 391.965 13.8356 405.634 9.08246 405.723Z" fill="#C6C6C6"/>
</g>
<g filter="url(#filter12_f_1_932)">
<path d="M1422.88 247.233C1425.61 243.43 1439.6 238.255 1446.25 236.143C1442.1 239.824 1432.54 247.975 1427.5 251.128C1422.46 254.282 1420.22 263.454 1419.74 267.645C1415.74 263.404 1419.47 251.987 1422.88 247.233Z" fill="#C6C6C6"/>
<path d="M1459.51 251.814C1449.53 252.818 1428.47 257.635 1424.07 268.863C1433.16 263.626 1452.97 252.886 1459.51 251.814Z" fill="#C6C6C6"/>
<path d="M1436.22 314.346C1421.4 306.443 1418.55 289.125 1418.97 281.453L1423.31 282.671C1421.53 290.481 1431.17 307.041 1436.22 314.346Z" fill="#C6C6C6"/>
<path d="M1427.08 282.174C1433.47 287.778 1453 299.74 1479.99 302.755C1464.33 295.932 1431.84 282.263 1427.08 282.174Z" fill="#C6C6C6"/>
</g>
<g filter="url(#filter13_f_1_932)">
<path d="M205 148.43C209.4 150.03 218.167 162.097 222 167.93C217.333 164.93 206.9 157.93 202.5 153.93C198.1 149.93 188.667 150.263 184.5 150.93C187.5 145.93 199.5 146.43 205 148.43Z" fill="#C6C6C6"/>
<path d="M210.5 184.93C206.833 175.597 196.5 156.63 184.5 155.43C192 162.764 207.7 178.93 210.5 184.93Z" fill="#C6C6C6"/>
<path d="M144 179.43C147.6 163.03 163.5 155.597 171 153.93V158.43C163 158.83 149.667 172.597 144 179.43Z" fill="#C6C6C6"/>
<path d="M172.5 161.93C168.833 169.597 162.6 191.63 167 218.43C169.333 201.514 173.7 166.53 172.5 161.93Z" fill="#C6C6C6"/>
</g>
<g filter="url(#filter14_f_1_932)">
<path d="M1316.2 30.9017C1310.72 32.3564 1298.83 45.9734 1293.57 52.6C1299.53 49.4842 1312.88 42.1645 1318.63 37.8126C1324.37 33.4606 1335.72 34.8855 1340.68 36.1419C1337.6 29.7806 1323.06 29.0835 1316.2 30.9017Z" fill="#C6C6C6"/>
<path d="M1305.61 74.3696C1311.05 63.4995 1325.58 41.7225 1340.19 41.5745C1330.34 49.6146 1309.64 67.4297 1305.61 74.3696Z" fill="#C6C6C6"/>
<path d="M1386.48 74.9381C1383.92 54.7493 1365.53 44.0521 1356.65 41.227L1356.17 46.6596C1365.78 48.0096 1380.38 66.0745 1386.48 74.9381Z" fill="#C6C6C6"/>
<path d="M1353.98 50.7223C1357.57 60.3752 1362.71 87.6502 1354.49 119.527C1353.51 98.8518 1352.03 56.1455 1353.98 50.7223Z" fill="#C6C6C6"/>
</g>
<g filter="url(#filter15_f_1_932)">
<path d="M36.5 194C49.6667 199.833 77.4 219.4 83 251C68.8333 233.667 39.7 198 36.5 194Z" fill="#C6C6C6"/>
<path d="M-1 218.5L16.5 199.5V218.5L-1 238.5V218.5Z" fill="#C6C6C6"/>
<path d="M103.5 218.5C101.9 211.7 85.1667 195 77 187.5V199.5C81.8 199.5 96.6667 212.167 103.5 218.5Z" fill="#C6C6C6"/>
</g>
<g filter="url(#filter16_f_1_932)">
<path d="M1417.5 606.397C1430.67 600.564 1458.4 580.997 1464 549.397C1449.83 566.73 1420.7 602.397 1417.5 606.397Z" fill="#C6C6C6"/>
<path d="M1380 581.897L1397.5 600.897V581.897L1380 561.897V581.897Z" fill="#C6C6C6"/>
<path d="M1484.5 581.897C1482.9 588.697 1466.17 605.397 1458 612.897V600.897C1462.8 600.897 1477.67 588.23 1484.5 581.897Z" fill="#C6C6C6"/>
</g>
<g filter="url(#filter17_f_1_932)">
<path d="M95 667.508C73 643.908 23.1667 652.342 1 659.508V799.008H563.5C508 774.008 478.5 764.508 440 769.008C401.5 773.508 381.5 757.008 373.5 750.008C365.5 743.008 336.5 738.508 321 744.008C305.5 749.508 284 764.508 263 764.508C242 764.508 208 727.508 197 725.008C186 722.508 153.5 724.508 139.5 717.008C125.5 709.508 122.5 697.008 95 667.508Z" fill="#CFCFCF"/>
<path d="M832 778.008C820 783.608 811.667 794.342 809 799.008H1439.5V673.508L1368 706.508C1349 716.508 1306.8 738.908 1290 748.508C1269 760.508 1224.5 764.008 1221.5 755.508C1218.5 747.008 1216 722.508 1212 717.508C1208 712.508 1168 715.008 1155 714.508C1142 714.008 1130.5 698.008 1127 694.508L1126.75 694.258C1122.73 690.228 1105.57 673.019 1086.5 673.508C1067 674.008 1037.5 699.508 1034 708.508C1030.5 717.508 1033 735.508 1027.5 746.508C1022 757.508 995 752.508 986 753.008C977 753.508 960 764.008 950 764.008C940 764.008 927.5 758.508 915 764.008C902.5 769.508 895 774.508 881.5 778.008C868 781.508 847 771.008 832 778.008Z" fill="#CFCFCF"/>
</g>
<g filter="url(#filter18_f_1_932)">
<path d="M803 733H637V785H803V733Z" fill="#CECECE"/>
<path d="M731 752H709V785H731V752Z" fill="#DBDBDB"/>
<path d="M664.253 634.182H775.801C789.622 634.182 802 625 802 625C802 625 793.9 649 775.266 649H664.734C646.154 649 638 625 638 625C638 625 650.445 634.182 664.253 634.182Z" fill="#CECECE"/>
<path d="M719.98 634H673C675.537 640.862 679.925 649 686.453 649H753.547C760.075 649 764.463 640.862 767 634H719.98Z" fill="#CECECE"/>
<path d="M784 689H656V716H784V689Z" fill="#CECECE"/>
<path d="M803 733H637V739H803V733Z" fill="#CECECE"/>
<path d="M660 733H650V774H660V733Z" fill="#DBDBDB"/>
<path d="M662 774H648V785H662V774Z" fill="#DBDBDB"/>
<path d="M842 792H598V802H842V792Z" fill="#CECECE"/>
<path d="M769 649H671V674H769V649Z" fill="#CECECE"/>
<path d="M774 649H666V653H774V649Z" fill="#CECECE"/>
<path d="M774 649H666V651H774V649Z" fill="#DBDBDB"/>
<path d="M780 774H790V733H780V774Z" fill="#DBDBDB"/>
<path d="M778 785H792V774H778V785Z" fill="#DBDBDB"/>
<path d="M685 733H675V774H685V733Z" fill="#DBDBDB"/>
<path d="M687 774H673V785H687V774Z" fill="#DBDBDB"/>
<path d="M755 774H765V733H755V774Z" fill="#DBDBDB"/>
<path d="M753 785H767V774H753V785Z" fill="#DBDBDB"/>
<path d="M720.007 584L665 634H775L720.007 584Z" fill="#CECECE"/>
<path d="M720.007 597L679 634H761L720.007 597Z" fill="#CECECE"/>
<path d="M809 733H631V739H809V733Z" fill="#CECECE"/>
<path d="M809 733H631V735H809V733Z" fill="#DBDBDB"/>
<path d="M771 700H769V716H771V700Z" fill="#DBDBDB"/>
<path d="M737 700H736V716H737V700Z" fill="#DBDBDB"/>
<path d="M704 700H703V716H704V700Z" fill="#DBDBDB"/>
<path d="M671 700H669V716H671V700Z" fill="#DBDBDB"/>
<path d="M784 699H656V700H784V699Z" fill="#DBDBDB"/>
<path d="M759 659H758V674H759V659Z" fill="#D7D7D7"/>
<path d="M733 659H732V674H733V659Z" fill="#D7D7D7"/>
<path d="M708 659H707V674H708V659Z" fill="#D7D7D7"/>
<path d="M682 659H681V674H682V659Z" fill="#D7D7D7"/>
<path d="M769 659H671V660H769V659Z" fill="#DBDBDB"/>
<path d="M657.5 667C657.203 667 656.913 666.912 656.667 666.747C656.42 666.582 656.228 666.348 656.114 666.074C656.001 665.8 655.971 665.498 656.029 665.207C656.087 664.916 656.23 664.649 656.439 664.439C656.649 664.23 656.916 664.087 657.207 664.029C657.498 663.971 657.8 664.001 658.074 664.114C658.348 664.228 658.582 664.42 658.747 664.667C658.912 664.913 659 665.203 659 665.5C659 665.898 658.842 666.279 658.561 666.561C658.279 666.842 657.898 667 657.5 667ZM657.5 665.22C657.428 665.223 657.359 665.254 657.309 665.306C657.26 665.358 657.232 665.428 657.232 665.5C657.232 665.805 657.781 665.805 657.781 665.5C657.781 665.426 657.751 665.354 657.698 665.302C657.646 665.249 657.574 665.22 657.5 665.22Z" fill="#CECECE"/>
<path d="M783 677H657V666H783V677ZM658.325 675.608H781.675V667.392H658.325V675.608Z" fill="#D7D7D7"/>
<path d="M782.512 667C782.215 667.002 781.924 666.916 781.676 666.753C781.427 666.59 781.233 666.356 781.118 666.082C781.002 665.809 780.971 665.507 781.027 665.215C781.084 664.923 781.226 664.655 781.435 664.444C781.644 664.233 781.912 664.089 782.203 664.03C782.494 663.971 782.796 664 783.071 664.113C783.346 664.226 783.581 664.418 783.746 664.665C783.912 664.912 784 665.203 784 665.5C784 665.896 783.844 666.275 783.565 666.556C783.286 666.837 782.908 666.997 782.512 667ZM782.512 665.219C782.475 665.219 782.439 665.227 782.405 665.241C782.371 665.255 782.34 665.276 782.314 665.302C782.288 665.328 782.267 665.359 782.253 665.393C782.239 665.427 782.232 665.463 782.232 665.5C782.232 665.805 782.78 665.805 782.78 665.5C782.781 665.428 782.753 665.358 782.703 665.306C782.653 665.254 782.584 665.223 782.512 665.219Z" fill="#CECECE"/>
<path d="M788.955 674.182H650.992C637.287 674.182 625 665 625 665C625 665 633.032 689 651.509 689H788.491C806.915 689 815 665 815 665C815 665 802.687 674.182 788.955 674.182Z" fill="#CECECE"/>
<path d="M777 674H663C665.671 680.862 670.144 689 676.861 689H763.139C769.856 689 774.383 680.862 777 674Z" fill="#CECECE"/>
<path d="M789 689H651V693H789V689Z" fill="#CECECE"/>
<path d="M789 689H651V691H789V689Z" fill="#DBDBDB"/>
<path d="M624.9 715.716H815.1C830.875 715.716 845 705 845 705C845 705 835.689 733 814.555 733H625.445C604.244 733 595 705 595 705C595 705 609.139 715.716 624.9 715.716Z" fill="#CECECE"/>
<path d="M644.5 708C644.203 708 643.913 707.912 643.667 707.747C643.42 707.582 643.228 707.348 643.114 707.074C643.001 706.8 642.971 706.498 643.029 706.207C643.087 705.916 643.23 705.649 643.439 705.439C643.649 705.23 643.916 705.087 644.207 705.029C644.498 704.971 644.8 705.001 645.074 705.114C645.348 705.228 645.582 705.42 645.747 705.667C645.912 705.913 646 706.203 646 706.5C646 706.697 645.961 706.892 645.886 707.074C645.81 707.256 645.7 707.421 645.561 707.561C645.421 707.7 645.256 707.81 645.074 707.886C644.892 707.961 644.697 708 644.5 708ZM644.5 706.22C644.428 706.223 644.36 706.254 644.31 706.306C644.26 706.358 644.232 706.428 644.232 706.5C644.232 706.805 644.78 706.805 644.78 706.5C644.78 706.426 644.751 706.354 644.698 706.302C644.646 706.249 644.574 706.22 644.5 706.22Z" fill="#CECECE"/>
<path d="M797 717H643V707H797V717ZM644.338 715.734H795.662V708.266H644.338V715.734Z" fill="#DBDBDB"/>
<path d="M795.512 708C795.215 708.002 794.924 707.916 794.676 707.753C794.427 707.59 794.233 707.356 794.118 707.082C794.002 706.809 793.971 706.507 794.027 706.215C794.084 705.923 794.226 705.655 794.435 705.444C794.644 705.233 794.912 705.089 795.203 705.03C795.494 704.971 795.796 705 796.071 705.113C796.346 705.226 796.581 705.418 796.746 705.665C796.912 705.912 797 706.203 797 706.5C797 706.896 796.844 707.275 796.565 707.556C796.286 707.837 795.908 707.997 795.512 708ZM795.512 706.219C795.438 706.219 795.366 706.249 795.314 706.302C795.261 706.354 795.232 706.426 795.232 706.5C795.232 706.805 795.78 706.805 795.78 706.5C795.781 706.428 795.753 706.358 795.703 706.306C795.653 706.254 795.584 706.223 795.512 706.219Z" fill="#CECECE"/>
<path d="M798 716H642C645.117 723.798 650.488 733 658.471 733H781.542C789.499 733 794.883 723.772 798 716Z" fill="#CECECE"/>
<path d="M822 785H618V792H822V785Z" fill="#CECECE"/>
<path d="M665 634H775L772.271 631H667.729L665 634Z" fill="#CECECE"/>
</g>
<g filter="url(#filter19_f_1_932)">
<circle cx="413" cy="-371" r="269" fill="#D9FF79"/>
</g>
<defs>
<filter id="filter0_f_1_932" x="464" y="313" width="980" height="355.508" filterUnits="userSpaceOnUse" color-interpolation-filters="sRGB">
<feFlood flood-opacity="0" result="BackgroundImageFix"/>
<feBlend mode="normal" in="SourceGraphic" in2="BackgroundImageFix" result="shape"/>
<feGaussianBlur stdDeviation="2" result="effect1_foregroundBlur_1_932"/>
</filter>
<filter id="filter1_f_1_932" x="-4.5" y="373.008" width="1448" height="262.5" filterUnits="userSpaceOnUse" color-interpolation-filters="sRGB">
<feFlood flood-opacity="0" result="BackgroundImageFix"/>
<feBlend mode="normal" in="SourceGraphic" in2="BackgroundImageFix" result="shape"/>
<feGaussianBlur stdDeviation="2" result="effect1_foregroundBlur_1_932"/>
</filter>
<filter id="filter2_f_1_932" x="-4" y="464.634" width="1449" height="288.874" filterUnits="userSpaceOnUse" color-interpolation-filters="sRGB">
<feFlood flood-opacity="0" result="BackgroundImageFix"/>
<feBlend mode="normal" in="SourceGraphic" in2="BackgroundImageFix" result="shape"/>
<feGaussianBlur stdDeviation="2" result="effect1_foregroundBlur_1_932"/>
</filter>
<filter id="filter3_f_1_932" x="165.5" y="580.072" width="1180" height="223.436" filterUnits="userSpaceOnUse" color-interpolation-filters="sRGB">
<feFlood flood-opacity="0" result="BackgroundImageFix"/>
<feBlend mode="normal" in="SourceGraphic" in2="BackgroundImageFix" result="shape"/>
<feGaussianBlur stdDeviation="2" result="effect1_foregroundBlur_1_932"/>
</filter>
<filter id="filter4_f_1_932" x="-5.71033" y="-27.9999" width="59.0519" height="811.868" filterUnits="userSpaceOnUse" color-interpolation-filters="sRGB">
<feFlood flood-opacity="0" result="BackgroundImageFix"/>
<feBlend mode="normal" in="SourceGraphic" in2="BackgroundImageFix" result="shape"/>
<feGaussianBlur stdDeviation="2" result="effect1_foregroundBlur_1_932"/>
</filter>
<filter id="filter5_f_1_932" x="20.4204" y="15.9998" width="76.1682" height="812.852" filterUnits="userSpaceOnUse" color-interpolation-filters="sRGB">
<feFlood flood-opacity="0" result="BackgroundImageFix"/>
<feBlend mode="normal" in="SourceGraphic" in2="BackgroundImageFix" result="shape"/>
<feGaussianBlur stdDeviation="2" result="effect1_foregroundBlur_1_932"/>
</filter>
<filter id="filter6_f_1_932" x="1368.42" y="-8.95471" width="76.1682" height="812.852" filterUnits="userSpaceOnUse" color-interpolation-filters="sRGB">
<feFlood flood-opacity="0" result="BackgroundImageFix"/>
<feBlend mode="normal" in="SourceGraphic" in2="BackgroundImageFix" result="shape"/>
<feGaussianBlur stdDeviation="2" result="effect1_foregroundBlur_1_932"/>
</filter>
<filter id="filter7_f_1_932" x="68.5" y="-27" width="140" height="805" filterUnits="userSpaceOnUse" color-interpolation-filters="sRGB">
<feFlood flood-opacity="0" result="BackgroundImageFix"/>
<feBlend mode="normal" in="SourceGraphic" in2="BackgroundImageFix" result="shape"/>
<feGaussianBlur stdDeviation="2" result="effect1_foregroundBlur_1_932"/>
</filter>
<filter id="filter8_f_1_932" x="1331.4" y="-180" width="80.963" height="984.472" filterUnits="userSpaceOnUse" color-interpolation-filters="sRGB">
<feFlood flood-opacity="0" result="BackgroundImageFix"/>
<feBlend mode="normal" in="SourceGraphic" in2="BackgroundImageFix" result="shape"/>
<feGaussianBlur stdDeviation="2" result="effect1_foregroundBlur_1_932"/>
</filter>
<filter id="filter9_f_1_932" x="85" y="426.57" width="86" height="79.4302" filterUnits="userSpaceOnUse" color-interpolation-filters="sRGB">
<feFlood flood-opacity="0" result="BackgroundImageFix"/>
<feBlend mode="normal" in="SourceGraphic" in2="BackgroundImageFix" result="shape"/>
<feGaussianBlur stdDeviation="2" result="effect1_foregroundBlur_1_932"/>
</filter>
<filter id="filter10_f_1_932" x="1323.98" y="377.082" width="103.411" height="91.2728" filterUnits="userSpaceOnUse" color-interpolation-filters="sRGB">
<feFlood flood-opacity="0" result="BackgroundImageFix"/>
<feBlend mode="normal" in="SourceGraphic" in2="BackgroundImageFix" result="shape"/>
<feGaussianBlur stdDeviation="2" result="effect1_foregroundBlur_1_932"/>
</filter>
<filter id="filter11_f_1_932" x="-3.99359" y="369.551" width="69.9808" height="86.2024" filterUnits="userSpaceOnUse" color-interpolation-filters="sRGB">
<feFlood flood-opacity="0" result="BackgroundImageFix"/>
<feBlend mode="normal" in="SourceGraphic" in2="BackgroundImageFix" result="shape"/>
<feGaussianBlur stdDeviation="2" result="effect1_foregroundBlur_1_932"/>
</filter>
<filter id="filter12_f_1_932" x="1414.01" y="232.143" width="69.9808" height="86.2024" filterUnits="userSpaceOnUse" color-interpolation-filters="sRGB">
<feFlood flood-opacity="0" result="BackgroundImageFix"/>
<feBlend mode="normal" in="SourceGraphic" in2="BackgroundImageFix" result="shape"/>
<feGaussianBlur stdDeviation="2" result="effect1_foregroundBlur_1_932"/>
</filter>
<filter id="filter13_f_1_932" x="140" y="143" width="86" height="79.4302" filterUnits="userSpaceOnUse" color-interpolation-filters="sRGB">
<feFlood flood-opacity="0" result="BackgroundImageFix"/>
<feBlend mode="normal" in="SourceGraphic" in2="BackgroundImageFix" result="shape"/>
<feGaussianBlur stdDeviation="2" result="effect1_foregroundBlur_1_932"/>
</filter>
<filter id="filter14_f_1_932" x="1289.57" y="26.0293" width="100.917" height="97.4977" filterUnits="userSpaceOnUse" color-interpolation-filters="sRGB">
<feFlood flood-opacity="0" result="BackgroundImageFix"/>
<feBlend mode="normal" in="SourceGraphic" in2="BackgroundImageFix" result="shape"/>
<feGaussianBlur stdDeviation="2" result="effect1_foregroundBlur_1_932"/>
</filter>
<filter id="filter15_f_1_932" x="-5" y="183.5" width="112.5" height="71.5" filterUnits="userSpaceOnUse" color-interpolation-filters="sRGB">
<feFlood flood-opacity="0" result="BackgroundImageFix"/>
<feBlend mode="normal" in="SourceGraphic" in2="BackgroundImageFix" result="shape"/>
<feGaussianBlur stdDeviation="2" result="effect1_foregroundBlur_1_932"/>
</filter>
<filter id="filter16_f_1_932" x="1376" y="545.397" width="112.5" height="71.5" filterUnits="userSpaceOnUse" color-interpolation-filters="sRGB">
<feFlood flood-opacity="0" result="BackgroundImageFix"/>
<feBlend mode="normal" in="SourceGraphic" in2="BackgroundImageFix" result="shape"/>
<feGaussianBlur stdDeviation="2" result="effect1_foregroundBlur_1_932"/>
</filter>
<filter id="filter17_f_1_932" x="-3" y="647.97" width="1446.5" height="155.038" filterUnits="userSpaceOnUse" color-interpolation-filters="sRGB">
<feFlood flood-opacity="0" result="BackgroundImageFix"/>
<feBlend mode="normal" in="SourceGraphic" in2="BackgroundImageFix" result="shape"/>
<feGaussianBlur stdDeviation="2" result="effect1_foregroundBlur_1_932"/>
</filter>
<filter id="filter18_f_1_932" x="591" y="580" width="258" height="226" filterUnits="userSpaceOnUse" color-interpolation-filters="sRGB">
<feFlood flood-opacity="0" result="BackgroundImageFix"/>
<feBlend mode="normal" in="SourceGraphic" in2="BackgroundImageFix" result="shape"/>
<feGaussianBlur stdDeviation="2" result="effect1_foregroundBlur_1_932"/>
</filter>
<filter id="filter19_f_1_932" x="-556" y="-1340" width="1938" height="1938" filterUnits="userSpaceOnUse" color-interpolation-filters="sRGB">
<feFlood flood-opacity="0" result="BackgroundImageFix"/>
<feBlend mode="normal" in="SourceGraphic" in2="BackgroundImageFix" result="shape"/>
<feGaussianBlur stdDeviation="350" result="effect1_foregroundBlur_1_932"/>
</filter>
</defs>
</svg>
